<svg viewBox="0 0 1440 320" xmlns="http://www.w3.org/2000/svg" preserveAspectRatio="none">
  <path fill="#5db9c9" fill-opacity="1" d="M0,128L40,144C80,160,160,192,240,192C320,192,400,160,480,133.3C560,107,640,85,720,101.3C800,117,880,171,960,186.7C1040,203,1120,181,1200,149.3C1280,117,1360,75,1400,53.3L1440,32L1440,320L1400,320C1360,320,1280,320,1200,320C1120,320,1040,320,960,320C880,320,800,320,720,320C640,320,560,320,480,320C400,320,320,320,240,320C160,320,80,320,40,320L0,320Z">
  </path>
</svg>
